<mxfile host="Electron" modified="2024-05-17T01:22:03.619Z" agent="Mozilla/5.0 (Macintosh; Intel Mac OS X 10_15_7) AppleWebKit/537.36 (KHTML, like Gecko) draw.io/24.4.0 Chrome/120.0.6099.109 Electron/28.1.0 Safari/537.36" etag="3NOV_XzTB1JD8QeQRdkS" version="24.4.0" type="device">
  <diagram name="Page-1" id="LE6fpmGGQXK_jgyP1LuT">
    <mxGraphModel dx="1060" dy="749" grid="0" gridSize="10" guides="1" tooltips="1" connect="1" arrows="1" fold="1" page="1" pageScale="1" pageWidth="1169" pageHeight="827" math="0" shadow="0">
      <root>
        <mxCell id="0" />
        <mxCell id="1" parent="0" />
        <mxCell id="eU0cPATb5Jl8-ybe21HE-7" style="edgeStyle=orthogonalEdgeStyle;rounded=0;orthogonalLoop=1;jettySize=auto;html=1;endArrow=none;endFill=0;dashed=1;" parent="1" source="eU0cPATb5Jl8-ybe21HE-14" edge="1">
          <mxGeometry relative="1" as="geometry">
            <mxPoint x="180" y="400" as="targetPoint" />
          </mxGeometry>
        </mxCell>
        <mxCell id="eGAYxCH9FSdXvzEAM2wn-22" value="&lt;b&gt;&lt;font style=&quot;font-size: 14px;&quot;&gt;Thingy52&lt;/font&gt;&lt;/b&gt;" style="rounded=0;whiteSpace=wrap;html=1;" parent="1" vertex="1">
          <mxGeometry x="120" y="130" width="120" height="32" as="geometry" />
        </mxCell>
        <mxCell id="eU0cPATb5Jl8-ybe21HE-4" style="edgeStyle=orthogonalEdgeStyle;rounded=0;orthogonalLoop=1;jettySize=auto;html=1;endArrow=none;endFill=0;dashed=1;" parent="1" source="eU0cPATb5Jl8-ybe21HE-16" edge="1">
          <mxGeometry relative="1" as="geometry">
            <mxPoint x="500" y="400" as="targetPoint" />
          </mxGeometry>
        </mxCell>
        <mxCell id="eGAYxCH9FSdXvzEAM2wn-21" value="&lt;b&gt;&lt;font style=&quot;font-size: 15px;&quot;&gt;nRF52840 DK&lt;/font&gt;&lt;/b&gt;" style="rounded=0;whiteSpace=wrap;html=1;fillColor=default;" parent="1" vertex="1">
          <mxGeometry x="440" y="127" width="120" height="32" as="geometry" />
        </mxCell>
        <mxCell id="eU0cPATb5Jl8-ybe21HE-3" style="edgeStyle=orthogonalEdgeStyle;rounded=0;orthogonalLoop=1;jettySize=auto;html=1;endArrow=none;endFill=0;dashed=1;" parent="1" source="eU0cPATb5Jl8-ybe21HE-12" edge="1">
          <mxGeometry relative="1" as="geometry">
            <mxPoint x="980" y="762.3529411764706" as="targetPoint" />
          </mxGeometry>
        </mxCell>
        <mxCell id="4q5T8XBlmFzmqve6YoR_-15" value="&lt;b&gt;&lt;font style=&quot;font-size: 15px;&quot;&gt;PC&lt;/font&gt;&lt;/b&gt;" style="rounded=0;whiteSpace=wrap;html=1;fillColor=default;" parent="1" vertex="1">
          <mxGeometry x="920" y="127" width="120" height="32" as="geometry" />
        </mxCell>
        <mxCell id="eU0cPATb5Jl8-ybe21HE-6" style="edgeStyle=orthogonalEdgeStyle;rounded=0;orthogonalLoop=1;jettySize=auto;html=1;endArrow=none;endFill=0;dashed=1;" parent="1" source="eU0cPATb5Jl8-ybe21HE-8" edge="1">
          <mxGeometry relative="1" as="geometry">
            <mxPoint x="180" y="760" as="targetPoint" />
          </mxGeometry>
        </mxCell>
        <mxCell id="4q5T8XBlmFzmqve6YoR_-16" value="&lt;b&gt;&lt;font style=&quot;font-size: 15px;&quot;&gt;Ultrasonic Node&lt;/font&gt;&lt;/b&gt;" style="rounded=0;whiteSpace=wrap;html=1;fillColor=default;" parent="1" vertex="1">
          <mxGeometry x="120" y="446" width="120" height="32" as="geometry" />
        </mxCell>
        <mxCell id="eU0cPATb5Jl8-ybe21HE-5" style="edgeStyle=orthogonalEdgeStyle;rounded=0;orthogonalLoop=1;jettySize=auto;html=1;endArrow=none;endFill=0;dashed=1;" parent="1" source="eU0cPATb5Jl8-ybe21HE-10" edge="1">
          <mxGeometry relative="1" as="geometry">
            <mxPoint x="500" y="760" as="targetPoint" />
          </mxGeometry>
        </mxCell>
        <mxCell id="eU0cPATb5Jl8-ybe21HE-2" value="&lt;b&gt;&lt;font style=&quot;font-size: 15px;&quot;&gt;MQTT Server&lt;/font&gt;&lt;/b&gt;" style="rounded=0;whiteSpace=wrap;html=1;fillColor=default;" parent="1" vertex="1">
          <mxGeometry x="440" y="446" width="120" height="32" as="geometry" />
        </mxCell>
        <mxCell id="eU0cPATb5Jl8-ybe21HE-9" value="" style="edgeStyle=orthogonalEdgeStyle;rounded=0;orthogonalLoop=1;jettySize=auto;html=1;endArrow=none;endFill=0;dashed=1;" parent="1" source="4q5T8XBlmFzmqve6YoR_-16" target="eU0cPATb5Jl8-ybe21HE-8" edge="1">
          <mxGeometry relative="1" as="geometry">
            <mxPoint x="180" y="760" as="targetPoint" />
            <mxPoint x="180" y="478" as="sourcePoint" />
          </mxGeometry>
        </mxCell>
        <mxCell id="zEdzmi21_0AZwgHvLv4D-2" style="edgeStyle=orthogonalEdgeStyle;rounded=0;orthogonalLoop=1;jettySize=auto;html=1;entryX=0;entryY=0.5;entryDx=0;entryDy=0;" parent="1" source="eU0cPATb5Jl8-ybe21HE-8" target="eU0cPATb5Jl8-ybe21HE-10" edge="1">
          <mxGeometry relative="1" as="geometry" />
        </mxCell>
        <mxCell id="eU0cPATb5Jl8-ybe21HE-8" value="" style="rounded=0;whiteSpace=wrap;html=1;fillColor=#f8cecc;strokeColor=#b85450;" parent="1" vertex="1">
          <mxGeometry x="170" y="520" width="20" height="80" as="geometry" />
        </mxCell>
        <mxCell id="eU0cPATb5Jl8-ybe21HE-11" value="" style="edgeStyle=orthogonalEdgeStyle;rounded=0;orthogonalLoop=1;jettySize=auto;html=1;endArrow=none;endFill=0;dashed=1;" parent="1" source="eU0cPATb5Jl8-ybe21HE-2" target="eU0cPATb5Jl8-ybe21HE-10" edge="1">
          <mxGeometry relative="1" as="geometry">
            <mxPoint x="500" y="760" as="targetPoint" />
            <mxPoint x="500" y="478" as="sourcePoint" />
          </mxGeometry>
        </mxCell>
        <mxCell id="zEdzmi21_0AZwgHvLv4D-3" style="edgeStyle=orthogonalEdgeStyle;rounded=0;orthogonalLoop=1;jettySize=auto;html=1;entryX=0;entryY=0.5;entryDx=0;entryDy=0;" parent="1" source="eU0cPATb5Jl8-ybe21HE-10" target="eU0cPATb5Jl8-ybe21HE-12" edge="1">
          <mxGeometry relative="1" as="geometry" />
        </mxCell>
        <mxCell id="eU0cPATb5Jl8-ybe21HE-10" value="" style="rounded=0;whiteSpace=wrap;html=1;fillColor=#f8cecc;strokeColor=#b85450;" parent="1" vertex="1">
          <mxGeometry x="490" y="520" width="20" height="80" as="geometry" />
        </mxCell>
        <mxCell id="eU0cPATb5Jl8-ybe21HE-13" value="" style="edgeStyle=orthogonalEdgeStyle;rounded=0;orthogonalLoop=1;jettySize=auto;html=1;endArrow=none;endFill=0;dashed=1;" parent="1" source="zEdzmi21_0AZwgHvLv4D-4" target="eU0cPATb5Jl8-ybe21HE-12" edge="1">
          <mxGeometry relative="1" as="geometry">
            <mxPoint x="980" y="762.3529411764706" as="targetPoint" />
            <mxPoint x="980" y="159" as="sourcePoint" />
          </mxGeometry>
        </mxCell>
        <mxCell id="eU0cPATb5Jl8-ybe21HE-12" value="" style="rounded=0;whiteSpace=wrap;html=1;fillColor=#f8cecc;strokeColor=#b85450;" parent="1" vertex="1">
          <mxGeometry x="970" y="520" width="20" height="80" as="geometry" />
        </mxCell>
        <mxCell id="eU0cPATb5Jl8-ybe21HE-15" value="" style="edgeStyle=orthogonalEdgeStyle;rounded=0;orthogonalLoop=1;jettySize=auto;html=1;endArrow=none;endFill=0;dashed=1;" parent="1" source="eGAYxCH9FSdXvzEAM2wn-22" target="eU0cPATb5Jl8-ybe21HE-14" edge="1">
          <mxGeometry relative="1" as="geometry">
            <mxPoint x="180" y="400" as="targetPoint" />
            <mxPoint x="180" y="162" as="sourcePoint" />
          </mxGeometry>
        </mxCell>
        <mxCell id="zEdzmi21_0AZwgHvLv4D-1" style="edgeStyle=orthogonalEdgeStyle;rounded=0;orthogonalLoop=1;jettySize=auto;html=1;entryX=0;entryY=0.5;entryDx=0;entryDy=0;" parent="1" source="eU0cPATb5Jl8-ybe21HE-14" target="eU0cPATb5Jl8-ybe21HE-16" edge="1">
          <mxGeometry relative="1" as="geometry" />
        </mxCell>
        <mxCell id="eU0cPATb5Jl8-ybe21HE-14" value="" style="rounded=0;whiteSpace=wrap;html=1;fillColor=#f8cecc;strokeColor=#b85450;" parent="1" vertex="1">
          <mxGeometry x="170" y="200" width="20" height="80" as="geometry" />
        </mxCell>
        <mxCell id="eU0cPATb5Jl8-ybe21HE-17" value="" style="edgeStyle=orthogonalEdgeStyle;rounded=0;orthogonalLoop=1;jettySize=auto;html=1;endArrow=none;endFill=0;dashed=1;" parent="1" source="eGAYxCH9FSdXvzEAM2wn-21" target="eU0cPATb5Jl8-ybe21HE-16" edge="1">
          <mxGeometry relative="1" as="geometry">
            <mxPoint x="500" y="400" as="targetPoint" />
            <mxPoint x="500" y="159" as="sourcePoint" />
          </mxGeometry>
        </mxCell>
        <mxCell id="zEdzmi21_0AZwgHvLv4D-6" style="edgeStyle=orthogonalEdgeStyle;rounded=0;orthogonalLoop=1;jettySize=auto;html=1;exitX=1;exitY=0.75;exitDx=0;exitDy=0;entryX=0;entryY=0.75;entryDx=0;entryDy=0;" parent="1" source="eU0cPATb5Jl8-ybe21HE-16" target="zEdzmi21_0AZwgHvLv4D-4" edge="1">
          <mxGeometry relative="1" as="geometry" />
        </mxCell>
        <mxCell id="eU0cPATb5Jl8-ybe21HE-16" value="" style="rounded=0;whiteSpace=wrap;html=1;fillColor=#f8cecc;strokeColor=#b85450;" parent="1" vertex="1">
          <mxGeometry x="490" y="200" width="20" height="80" as="geometry" />
        </mxCell>
        <mxCell id="zEdzmi21_0AZwgHvLv4D-5" value="" style="edgeStyle=orthogonalEdgeStyle;rounded=0;orthogonalLoop=1;jettySize=auto;html=1;endArrow=none;endFill=0;dashed=1;" parent="1" source="4q5T8XBlmFzmqve6YoR_-15" target="zEdzmi21_0AZwgHvLv4D-4" edge="1">
          <mxGeometry relative="1" as="geometry">
            <mxPoint x="980" y="520" as="targetPoint" />
            <mxPoint x="980" y="159" as="sourcePoint" />
          </mxGeometry>
        </mxCell>
        <mxCell id="zEdzmi21_0AZwgHvLv4D-4" value="" style="rounded=0;whiteSpace=wrap;html=1;fillColor=#f8cecc;strokeColor=#b85450;" parent="1" vertex="1">
          <mxGeometry x="970" y="200" width="20" height="80" as="geometry" />
        </mxCell>
        <mxCell id="zEdzmi21_0AZwgHvLv4D-7" value="" style="endArrow=classic;html=1;rounded=0;exitX=-0.017;exitY=0.138;exitDx=0;exitDy=0;exitPerimeter=0;" parent="1" source="zEdzmi21_0AZwgHvLv4D-4" edge="1">
          <mxGeometry width="50" height="50" relative="1" as="geometry">
            <mxPoint x="590" y="230" as="sourcePoint" />
            <mxPoint x="510" y="210" as="targetPoint" />
          </mxGeometry>
        </mxCell>
        <mxCell id="zEdzmi21_0AZwgHvLv4D-8" value="&lt;font style=&quot;font-size: 10px;&quot;&gt;Broadcast Button Press via Eddystone-UID&lt;/font&gt;" style="text;html=1;align=center;verticalAlign=middle;whiteSpace=wrap;rounded=0;" parent="1" vertex="1">
          <mxGeometry x="222" y="210" width="208" height="30" as="geometry" />
        </mxCell>
        <mxCell id="zEdzmi21_0AZwgHvLv4D-9" value="&lt;font style=&quot;&quot;&gt;&lt;span style=&quot;font-size: 10px;&quot;&gt;Detected&amp;nbsp;&lt;/span&gt;&lt;span style=&quot;font-size: 10px; background-color: initial;&quot;&gt;Gestures&amp;nbsp;&lt;/span&gt;&lt;span style=&quot;font-size: 10px;&quot;&gt;via Protocol Buffers&lt;/span&gt;&lt;/font&gt;" style="text;html=1;align=center;verticalAlign=middle;whiteSpace=wrap;rounded=0;" parent="1" vertex="1">
          <mxGeometry x="630" y="180" width="240" height="30" as="geometry" />
        </mxCell>
        <mxCell id="zEdzmi21_0AZwgHvLv4D-10" value="&lt;span style=&quot;font-size: 10px;&quot;&gt;HID Packets&lt;/span&gt;" style="text;html=1;align=center;verticalAlign=middle;whiteSpace=wrap;rounded=0;" parent="1" vertex="1">
          <mxGeometry x="670" y="230" width="180" height="30" as="geometry" />
        </mxCell>
        <mxCell id="zEdzmi21_0AZwgHvLv4D-11" value="&lt;font style=&quot;font-size: 10px;&quot;&gt;Publish Detected Range and Timestamp to Server&lt;/font&gt;" style="text;html=1;align=center;verticalAlign=middle;whiteSpace=wrap;rounded=0;" parent="1" vertex="1">
          <mxGeometry x="260" y="530" width="180" height="30" as="geometry" />
        </mxCell>
        <mxCell id="zEdzmi21_0AZwgHvLv4D-12" value="&lt;font style=&quot;font-size: 10px;&quot;&gt;Receive Data from Server&lt;/font&gt;" style="text;html=1;align=center;verticalAlign=middle;whiteSpace=wrap;rounded=0;" parent="1" vertex="1">
          <mxGeometry x="660" y="530" width="180" height="30" as="geometry" />
        </mxCell>
      </root>
    </mxGraphModel>
  </diagram>
</mxfile>
